<mxfile host="app.diagrams.net" modified="2022-04-03T14:32:30.606Z" agent="5.0 (Macintosh; Intel Mac OS X 10_15_7) AppleWebKit/537.36 (KHTML, like Gecko) Chrome/99.0.4844.84 Safari/537.36" etag="oVNyOkQniADM1ZG5ms_U" version="17.2.4" type="github">
  <diagram id="3228e29e-7158-1315-38df-8450db1d8a1d" name="Page-1">
    <mxGraphModel dx="1129" dy="-290" grid="0" gridSize="10" guides="1" tooltips="1" connect="1" arrows="1" fold="1" page="1" pageScale="1" pageWidth="919" pageHeight="300" background="#EFF1F3" math="0" shadow="0">
      <root>
        <mxCell id="0" />
        <mxCell id="1" parent="0" />
        <mxCell id="GaA7F-3ZN9o3i6LmKS-X-34" value="" style="shape=flexArrow;endArrow=classic;startArrow=classic;html=1;rounded=0;fontSize=16;fontColor=#000000;strokeColor=none;fillColor=#FDD276;" parent="1" edge="1">
          <mxGeometry width="100" height="100" relative="1" as="geometry">
            <mxPoint x="103" y="1119" as="sourcePoint" />
            <mxPoint x="172" y="1119" as="targetPoint" />
          </mxGeometry>
        </mxCell>
        <mxCell id="GaA7F-3ZN9o3i6LmKS-X-35" value="&lt;font color=&quot;#ffffff&quot;&gt;&lt;span style=&quot;font-size: 16px&quot;&gt;&lt;br&gt;&lt;/span&gt;&lt;/font&gt;" style="whiteSpace=wrap;html=1;aspect=fixed;rounded=1;strokeColor=none;fillColor=#4A919B;" parent="1" vertex="1">
          <mxGeometry x="14" y="1079.5" width="80" height="80" as="geometry" />
        </mxCell>
        <mxCell id="GaA7F-3ZN9o3i6LmKS-X-36" value="数据" style="rounded=1;whiteSpace=wrap;html=1;fillColor=#9AC7BF;strokeColor=default;fontColor=#000000;align=center;" parent="1" vertex="1">
          <mxGeometry x="37" y="1101.5" width="50" height="17" as="geometry" />
        </mxCell>
        <mxCell id="GaA7F-3ZN9o3i6LmKS-X-37" value="&lt;font color=&quot;#ffffff&quot;&gt;页号100&lt;/font&gt;" style="text;html=1;strokeColor=none;fillColor=none;align=center;verticalAlign=middle;whiteSpace=wrap;rounded=0;dashed=1;fontColor=#535E80;" parent="1" vertex="1">
          <mxGeometry x="26" y="1079.5" width="55" height="22" as="geometry" />
        </mxCell>
        <mxCell id="GaA7F-3ZN9o3i6LmKS-X-38" value="" style="shape=flexArrow;endArrow=classic;html=1;rounded=0;fontColor=#FFFFFF;strokeColor=none;fillColor=#FDD276;" parent="1" edge="1">
          <mxGeometry width="50" height="50" relative="1" as="geometry">
            <mxPoint x="116.65000000000032" y="1034.5" as="sourcePoint" />
            <mxPoint x="84.5" y="1066.5" as="targetPoint" />
          </mxGeometry>
        </mxCell>
        <mxCell id="GaA7F-3ZN9o3i6LmKS-X-39" value="" style="shape=flexArrow;endArrow=classic;html=1;rounded=0;fontColor=#FFFFFF;strokeColor=none;fillColor=#FDD276;" parent="1" edge="1">
          <mxGeometry width="50" height="50" relative="1" as="geometry">
            <mxPoint x="155.6500000000001" y="1034.5" as="sourcePoint" />
            <mxPoint x="188.49999999999977" y="1066.5" as="targetPoint" />
          </mxGeometry>
        </mxCell>
        <mxCell id="GaA7F-3ZN9o3i6LmKS-X-40" value="&lt;font&gt;1&lt;/font&gt;" style="rounded=1;whiteSpace=wrap;html=1;fillColor=#9AC7BF;strokeColor=default;fontColor=#000000;" parent="1" vertex="1">
          <mxGeometry x="21.25" y="1101.5" width="15.75" height="17" as="geometry" />
        </mxCell>
        <mxCell id="GaA7F-3ZN9o3i6LmKS-X-41" value="数据" style="rounded=1;whiteSpace=wrap;html=1;fillColor=#9AC7BF;strokeColor=default;fontColor=#000000;align=center;" parent="1" vertex="1">
          <mxGeometry x="37" y="1118.5" width="50" height="17" as="geometry" />
        </mxCell>
        <mxCell id="GaA7F-3ZN9o3i6LmKS-X-42" value="&lt;font&gt;2&lt;/font&gt;" style="rounded=1;whiteSpace=wrap;html=1;fillColor=#9AC7BF;strokeColor=default;fontColor=#000000;" parent="1" vertex="1">
          <mxGeometry x="21.25" y="1118.5" width="15.75" height="17" as="geometry" />
        </mxCell>
        <mxCell id="GaA7F-3ZN9o3i6LmKS-X-43" value="数据" style="rounded=1;whiteSpace=wrap;html=1;fillColor=#9AC7BF;strokeColor=default;fontColor=#000000;align=center;" parent="1" vertex="1">
          <mxGeometry x="37" y="1135.5" width="50" height="17" as="geometry" />
        </mxCell>
        <mxCell id="GaA7F-3ZN9o3i6LmKS-X-44" value="&lt;font&gt;3&lt;/font&gt;" style="rounded=1;whiteSpace=wrap;html=1;fillColor=#9AC7BF;strokeColor=default;fontColor=#000000;" parent="1" vertex="1">
          <mxGeometry x="21.25" y="1135.5" width="15.75" height="17" as="geometry" />
        </mxCell>
        <mxCell id="GaA7F-3ZN9o3i6LmKS-X-45" value="&lt;font color=&quot;#ffffff&quot;&gt;&lt;span style=&quot;font-size: 16px&quot;&gt;&lt;br&gt;&lt;/span&gt;&lt;/font&gt;" style="whiteSpace=wrap;html=1;aspect=fixed;rounded=1;strokeColor=none;fillColor=#4A919B;" parent="1" vertex="1">
          <mxGeometry x="179" y="1079.5" width="80" height="80" as="geometry" />
        </mxCell>
        <mxCell id="GaA7F-3ZN9o3i6LmKS-X-46" value="数据" style="rounded=1;whiteSpace=wrap;html=1;fillColor=#9AC7BF;strokeColor=default;fontColor=#000000;align=center;" parent="1" vertex="1">
          <mxGeometry x="202" y="1101.5" width="50" height="17" as="geometry" />
        </mxCell>
        <mxCell id="GaA7F-3ZN9o3i6LmKS-X-47" value="&lt;font color=&quot;#ffffff&quot;&gt;页号105&lt;/font&gt;" style="text;html=1;strokeColor=none;fillColor=none;align=center;verticalAlign=middle;whiteSpace=wrap;rounded=0;dashed=1;fontColor=#535E80;" parent="1" vertex="1">
          <mxGeometry x="191" y="1079.5" width="55" height="22" as="geometry" />
        </mxCell>
        <mxCell id="GaA7F-3ZN9o3i6LmKS-X-48" value="&lt;font&gt;4&lt;/font&gt;" style="rounded=1;whiteSpace=wrap;html=1;fillColor=#9AC7BF;strokeColor=default;fontColor=#000000;" parent="1" vertex="1">
          <mxGeometry x="186.25" y="1101.5" width="15.75" height="17" as="geometry" />
        </mxCell>
        <mxCell id="GaA7F-3ZN9o3i6LmKS-X-49" value="数据" style="rounded=1;whiteSpace=wrap;html=1;fillColor=#9AC7BF;strokeColor=default;fontColor=#000000;align=center;" parent="1" vertex="1">
          <mxGeometry x="202" y="1118.5" width="50" height="17" as="geometry" />
        </mxCell>
        <mxCell id="GaA7F-3ZN9o3i6LmKS-X-50" value="&lt;font&gt;5&lt;/font&gt;" style="rounded=1;whiteSpace=wrap;html=1;fillColor=#9AC7BF;strokeColor=default;fontColor=#000000;" parent="1" vertex="1">
          <mxGeometry x="186.25" y="1118.5" width="15.75" height="17" as="geometry" />
        </mxCell>
        <mxCell id="GaA7F-3ZN9o3i6LmKS-X-51" value="&lt;font color=&quot;#ffffff&quot;&gt;&lt;span style=&quot;font-size: 16px&quot;&gt;&lt;br&gt;&lt;/span&gt;&lt;/font&gt;" style="whiteSpace=wrap;html=1;aspect=fixed;rounded=1;strokeColor=none;fillColor=#67AB9F;" parent="1" vertex="1">
          <mxGeometry x="97" y="942.5" width="80" height="80" as="geometry" />
        </mxCell>
        <mxCell id="GaA7F-3ZN9o3i6LmKS-X-52" value="页号100" style="rounded=1;whiteSpace=wrap;html=1;fillColor=#9AC7BF;strokeColor=default;fontColor=#000000;align=center;" parent="1" vertex="1">
          <mxGeometry x="119.88" y="970.5" width="50" height="17" as="geometry" />
        </mxCell>
        <mxCell id="GaA7F-3ZN9o3i6LmKS-X-53" value="&lt;font color=&quot;#ffffff&quot;&gt;页号6&lt;/font&gt;" style="text;html=1;strokeColor=none;fillColor=none;align=center;verticalAlign=middle;whiteSpace=wrap;rounded=0;dashed=1;fontColor=#535E80;" parent="1" vertex="1">
          <mxGeometry x="109" y="942.5" width="55" height="22" as="geometry" />
        </mxCell>
        <mxCell id="GaA7F-3ZN9o3i6LmKS-X-54" value="&lt;font&gt;1&lt;/font&gt;" style="rounded=1;whiteSpace=wrap;html=1;fillColor=#9AC7BF;strokeColor=default;fontColor=#000000;" parent="1" vertex="1">
          <mxGeometry x="104.13" y="970.5" width="15.75" height="17" as="geometry" />
        </mxCell>
        <mxCell id="GaA7F-3ZN9o3i6LmKS-X-55" value="页号105" style="rounded=1;whiteSpace=wrap;html=1;fillColor=#9AC7BF;strokeColor=default;fontColor=#000000;align=center;" parent="1" vertex="1">
          <mxGeometry x="119.88" y="987.5" width="50" height="17" as="geometry" />
        </mxCell>
        <mxCell id="GaA7F-3ZN9o3i6LmKS-X-56" value="&lt;font&gt;4&lt;/font&gt;" style="rounded=1;whiteSpace=wrap;html=1;fillColor=#9AC7BF;strokeColor=default;fontColor=#000000;" parent="1" vertex="1">
          <mxGeometry x="104.13" y="987.5" width="15.75" height="17" as="geometry" />
        </mxCell>
        <mxCell id="GaA7F-3ZN9o3i6LmKS-X-57" value="" style="shape=flexArrow;endArrow=classic;startArrow=classic;html=1;rounded=0;fontSize=16;fontColor=#000000;strokeColor=none;fillColor=#FDD276;" parent="1" edge="1">
          <mxGeometry width="100" height="100" relative="1" as="geometry">
            <mxPoint x="470" y="1119" as="sourcePoint" />
            <mxPoint x="529" y="1118.5" as="targetPoint" />
          </mxGeometry>
        </mxCell>
        <mxCell id="GaA7F-3ZN9o3i6LmKS-X-58" value="&lt;font color=&quot;#ffffff&quot;&gt;&lt;span style=&quot;font-size: 16px&quot;&gt;&lt;br&gt;&lt;/span&gt;&lt;/font&gt;" style="whiteSpace=wrap;html=1;aspect=fixed;rounded=1;strokeColor=none;fillColor=#4A919B;" parent="1" vertex="1">
          <mxGeometry x="387" y="1079.5" width="80" height="80" as="geometry" />
        </mxCell>
        <mxCell id="GaA7F-3ZN9o3i6LmKS-X-59" value="数据" style="rounded=1;whiteSpace=wrap;html=1;fillColor=#9AC7BF;strokeColor=default;fontColor=#000000;align=center;" parent="1" vertex="1">
          <mxGeometry x="410" y="1101.5" width="50" height="17" as="geometry" />
        </mxCell>
        <mxCell id="GaA7F-3ZN9o3i6LmKS-X-60" value="&lt;font color=&quot;#ffffff&quot;&gt;页号100&lt;/font&gt;" style="text;html=1;strokeColor=none;fillColor=none;align=center;verticalAlign=middle;whiteSpace=wrap;rounded=0;dashed=1;fontColor=#535E80;" parent="1" vertex="1">
          <mxGeometry x="399" y="1079.5" width="55" height="22" as="geometry" />
        </mxCell>
        <mxCell id="GaA7F-3ZN9o3i6LmKS-X-61" value="" style="shape=flexArrow;endArrow=classic;html=1;rounded=0;fontColor=#FFFFFF;strokeColor=none;fillColor=#FDD276;" parent="1" edge="1">
          <mxGeometry width="50" height="50" relative="1" as="geometry">
            <mxPoint x="519.1500000000003" y="1035" as="sourcePoint" />
            <mxPoint x="487" y="1067" as="targetPoint" />
          </mxGeometry>
        </mxCell>
        <mxCell id="GaA7F-3ZN9o3i6LmKS-X-62" value="" style="shape=flexArrow;endArrow=classic;html=1;rounded=0;fontColor=#FFFFFF;strokeColor=none;fillColor=#FDD276;" parent="1" edge="1">
          <mxGeometry width="50" height="50" relative="1" as="geometry">
            <mxPoint x="632.0000000000001" y="1035" as="sourcePoint" />
            <mxPoint x="664.85" y="1067" as="targetPoint" />
          </mxGeometry>
        </mxCell>
        <mxCell id="GaA7F-3ZN9o3i6LmKS-X-63" value="&lt;font&gt;1&lt;/font&gt;" style="rounded=1;whiteSpace=wrap;html=1;fillColor=#9AC7BF;strokeColor=default;fontColor=#000000;" parent="1" vertex="1">
          <mxGeometry x="394.25" y="1101.5" width="15.75" height="17" as="geometry" />
        </mxCell>
        <mxCell id="GaA7F-3ZN9o3i6LmKS-X-64" value="数据" style="rounded=1;whiteSpace=wrap;html=1;fillColor=#9AC7BF;strokeColor=default;fontColor=#000000;align=center;" parent="1" vertex="1">
          <mxGeometry x="410" y="1118.5" width="50" height="17" as="geometry" />
        </mxCell>
        <mxCell id="GaA7F-3ZN9o3i6LmKS-X-65" value="&lt;font&gt;2&lt;/font&gt;" style="rounded=1;whiteSpace=wrap;html=1;fillColor=#9AC7BF;strokeColor=default;fontColor=#000000;" parent="1" vertex="1">
          <mxGeometry x="394.25" y="1118.5" width="15.75" height="17" as="geometry" />
        </mxCell>
        <mxCell id="GaA7F-3ZN9o3i6LmKS-X-66" value="数据" style="rounded=1;whiteSpace=wrap;html=1;fillColor=#9AC7BF;strokeColor=default;fontColor=#000000;align=center;" parent="1" vertex="1">
          <mxGeometry x="410" y="1135.5" width="50" height="17" as="geometry" />
        </mxCell>
        <mxCell id="GaA7F-3ZN9o3i6LmKS-X-67" value="&lt;font&gt;3&lt;/font&gt;" style="rounded=1;whiteSpace=wrap;html=1;fillColor=#9AC7BF;strokeColor=default;fontColor=#000000;" parent="1" vertex="1">
          <mxGeometry x="394.25" y="1135.5" width="15.75" height="17" as="geometry" />
        </mxCell>
        <mxCell id="GaA7F-3ZN9o3i6LmKS-X-68" value="&lt;font color=&quot;#ffffff&quot;&gt;&lt;span style=&quot;font-size: 16px&quot;&gt;&lt;br&gt;&lt;/span&gt;&lt;/font&gt;" style="whiteSpace=wrap;html=1;aspect=fixed;rounded=1;strokeColor=none;fillColor=#4A919B;" parent="1" vertex="1">
          <mxGeometry x="533" y="1079.5" width="80" height="80" as="geometry" />
        </mxCell>
        <mxCell id="GaA7F-3ZN9o3i6LmKS-X-69" value="数据" style="rounded=1;whiteSpace=wrap;html=1;fillColor=#9AC7BF;strokeColor=default;fontColor=#000000;align=center;" parent="1" vertex="1">
          <mxGeometry x="556" y="1101.5" width="50" height="17" as="geometry" />
        </mxCell>
        <mxCell id="GaA7F-3ZN9o3i6LmKS-X-70" value="&lt;font color=&quot;#ffffff&quot;&gt;页号105&lt;/font&gt;" style="text;html=1;strokeColor=none;fillColor=none;align=center;verticalAlign=middle;whiteSpace=wrap;rounded=0;dashed=1;fontColor=#535E80;" parent="1" vertex="1">
          <mxGeometry x="545" y="1079.5" width="55" height="22" as="geometry" />
        </mxCell>
        <mxCell id="GaA7F-3ZN9o3i6LmKS-X-71" value="&lt;font&gt;4&lt;/font&gt;" style="rounded=1;whiteSpace=wrap;html=1;fillColor=#9AC7BF;strokeColor=default;fontColor=#000000;" parent="1" vertex="1">
          <mxGeometry x="540.25" y="1101.5" width="15.75" height="17" as="geometry" />
        </mxCell>
        <mxCell id="GaA7F-3ZN9o3i6LmKS-X-72" value="数据" style="rounded=1;whiteSpace=wrap;html=1;fillColor=#9AC7BF;strokeColor=default;fontColor=#000000;align=center;" parent="1" vertex="1">
          <mxGeometry x="556" y="1118.5" width="50" height="17" as="geometry" />
        </mxCell>
        <mxCell id="GaA7F-3ZN9o3i6LmKS-X-73" value="&lt;font&gt;5&lt;/font&gt;" style="rounded=1;whiteSpace=wrap;html=1;fillColor=#9AC7BF;strokeColor=default;fontColor=#000000;" parent="1" vertex="1">
          <mxGeometry x="540.25" y="1118.5" width="15.75" height="17" as="geometry" />
        </mxCell>
        <mxCell id="GaA7F-3ZN9o3i6LmKS-X-76" value="&lt;font color=&quot;#ffffff&quot;&gt;&lt;span style=&quot;font-size: 16px&quot;&gt;&lt;br&gt;&lt;/span&gt;&lt;/font&gt;" style="whiteSpace=wrap;html=1;aspect=fixed;rounded=1;strokeColor=none;fillColor=#67AB9F;" parent="1" vertex="1">
          <mxGeometry x="533" y="942.5" width="80" height="80" as="geometry" />
        </mxCell>
        <mxCell id="GaA7F-3ZN9o3i6LmKS-X-77" value="页号100" style="rounded=1;whiteSpace=wrap;html=1;fillColor=#9AC7BF;strokeColor=default;fontColor=#000000;align=center;" parent="1" vertex="1">
          <mxGeometry x="555.88" y="964.5" width="50" height="17" as="geometry" />
        </mxCell>
        <mxCell id="GaA7F-3ZN9o3i6LmKS-X-78" value="&lt;font color=&quot;#ffffff&quot;&gt;页号6&lt;/font&gt;" style="text;html=1;strokeColor=none;fillColor=none;align=center;verticalAlign=middle;whiteSpace=wrap;rounded=0;dashed=1;fontColor=#535E80;" parent="1" vertex="1">
          <mxGeometry x="545" y="942.5" width="55" height="22" as="geometry" />
        </mxCell>
        <mxCell id="GaA7F-3ZN9o3i6LmKS-X-79" value="&lt;font&gt;1&lt;/font&gt;" style="rounded=1;whiteSpace=wrap;html=1;fillColor=#9AC7BF;strokeColor=default;fontColor=#000000;" parent="1" vertex="1">
          <mxGeometry x="540.13" y="964.5" width="15.75" height="17" as="geometry" />
        </mxCell>
        <mxCell id="GaA7F-3ZN9o3i6LmKS-X-80" value="页号105" style="rounded=1;whiteSpace=wrap;html=1;fillColor=#9AC7BF;strokeColor=default;fontColor=#000000;align=center;" parent="1" vertex="1">
          <mxGeometry x="555.88" y="981.5" width="50" height="17" as="geometry" />
        </mxCell>
        <mxCell id="GaA7F-3ZN9o3i6LmKS-X-81" value="&lt;font&gt;4&lt;/font&gt;" style="rounded=1;whiteSpace=wrap;html=1;fillColor=#9AC7BF;strokeColor=default;fontColor=#000000;" parent="1" vertex="1">
          <mxGeometry x="540.13" y="981.5" width="15.75" height="17" as="geometry" />
        </mxCell>
        <mxCell id="GaA7F-3ZN9o3i6LmKS-X-82" value="" style="shape=curlyBracket;whiteSpace=wrap;html=1;rounded=1;flipH=1;fontColor=#000000;fillColor=none;fontSize=5;strokeWidth=3;strokeColor=#4A919B;" parent="1" vertex="1">
          <mxGeometry x="787" y="1070.5" width="20" height="89" as="geometry" />
        </mxCell>
        <mxCell id="GaA7F-3ZN9o3i6LmKS-X-83" value="叶子结点&lt;br&gt;放数据表行数据" style="text;html=1;strokeColor=none;fillColor=none;align=center;verticalAlign=middle;whiteSpace=wrap;rounded=0;fontColor=#4A919B;" parent="1" vertex="1">
          <mxGeometry x="813.5" y="1097" width="92" height="44" as="geometry" />
        </mxCell>
        <mxCell id="GaA7F-3ZN9o3i6LmKS-X-84" value="" style="shape=curlyBracket;whiteSpace=wrap;html=1;rounded=1;flipH=1;fontColor=#000000;fillColor=none;fontSize=5;strokeWidth=3;strokeColor=#67AB9F;" parent="1" vertex="1">
          <mxGeometry x="787" y="940" width="20" height="89" as="geometry" />
        </mxCell>
        <mxCell id="GaA7F-3ZN9o3i6LmKS-X-85" value="&lt;span style=&quot;color: rgb(103 , 171 , 159)&quot;&gt;非叶子结点&lt;/span&gt;&lt;br style=&quot;color: rgb(103 , 171 , 159)&quot;&gt;&lt;span style=&quot;color: rgb(103 , 171 , 159)&quot;&gt;放索引数据&lt;/span&gt;" style="text;html=1;strokeColor=none;fillColor=none;align=center;verticalAlign=middle;whiteSpace=wrap;rounded=0;fontColor=#4A919B;" parent="1" vertex="1">
          <mxGeometry x="813.5" y="966.5" width="92" height="44" as="geometry" />
        </mxCell>
        <mxCell id="GaA7F-3ZN9o3i6LmKS-X-87" value="数据" style="rounded=1;whiteSpace=wrap;html=1;fillColor=#9AC7BF;strokeColor=default;fontColor=#000000;align=center;" parent="1" vertex="1">
          <mxGeometry x="201.88" y="1135.5" width="50" height="17" as="geometry" />
        </mxCell>
        <mxCell id="GaA7F-3ZN9o3i6LmKS-X-88" value="&lt;font&gt;6&lt;/font&gt;" style="rounded=1;whiteSpace=wrap;html=1;fillColor=#9AC7BF;strokeColor=default;fontColor=#000000;" parent="1" vertex="1">
          <mxGeometry x="186.13" y="1135.5" width="15.75" height="17" as="geometry" />
        </mxCell>
        <mxCell id="GaA7F-3ZN9o3i6LmKS-X-92" value="" style="shape=flexArrow;endArrow=classic;startArrow=none;html=1;rounded=0;fontSize=16;fontColor=#000000;strokeColor=none;fillColor=#535E80;startFill=0;" parent="1" edge="1">
          <mxGeometry width="100" height="100" relative="1" as="geometry">
            <mxPoint x="286.75" y="1047.5" as="sourcePoint" />
            <mxPoint x="378.75" y="1047.5" as="targetPoint" />
          </mxGeometry>
        </mxCell>
        <mxCell id="GaA7F-3ZN9o3i6LmKS-X-93" value="数据" style="rounded=1;whiteSpace=wrap;html=1;fillColor=#F19C99;strokeColor=default;fontColor=#000000;align=center;" parent="1" vertex="1">
          <mxGeometry x="305" y="1021.5" width="50" height="17" as="geometry" />
        </mxCell>
        <mxCell id="GaA7F-3ZN9o3i6LmKS-X-94" value="&lt;font&gt;7&lt;/font&gt;" style="rounded=1;whiteSpace=wrap;html=1;fillColor=#F19C99;strokeColor=default;fontColor=#000000;" parent="1" vertex="1">
          <mxGeometry x="289.25" y="1021.5" width="15.75" height="17" as="geometry" />
        </mxCell>
        <mxCell id="GaA7F-3ZN9o3i6LmKS-X-95" value="插入" style="text;html=1;strokeColor=none;fillColor=none;align=center;verticalAlign=middle;whiteSpace=wrap;rounded=0;" parent="1" vertex="1">
          <mxGeometry x="255" y="1021.5" width="34.25" height="17" as="geometry" />
        </mxCell>
        <mxCell id="GaA7F-3ZN9o3i6LmKS-X-96" value="&lt;font color=&quot;#ffffff&quot;&gt;&lt;span style=&quot;font-size: 16px&quot;&gt;&lt;br&gt;&lt;/span&gt;&lt;/font&gt;" style="whiteSpace=wrap;html=1;aspect=fixed;rounded=1;strokeColor=none;fillColor=#F19C99;" parent="1" vertex="1">
          <mxGeometry x="682" y="1079.5" width="80" height="80" as="geometry" />
        </mxCell>
        <mxCell id="GaA7F-3ZN9o3i6LmKS-X-97" value="数据" style="rounded=1;whiteSpace=wrap;html=1;fillColor=#9AC7BF;strokeColor=default;fontColor=#000000;align=center;" parent="1" vertex="1">
          <mxGeometry x="705" y="1101.5" width="50" height="17" as="geometry" />
        </mxCell>
        <mxCell id="GaA7F-3ZN9o3i6LmKS-X-98" value="&lt;font color=&quot;#ffffff&quot;&gt;页号72&lt;/font&gt;" style="text;html=1;strokeColor=none;fillColor=none;align=center;verticalAlign=middle;whiteSpace=wrap;rounded=0;dashed=1;fontColor=#535E80;" parent="1" vertex="1">
          <mxGeometry x="694" y="1079.5" width="55" height="22" as="geometry" />
        </mxCell>
        <mxCell id="GaA7F-3ZN9o3i6LmKS-X-99" value="&lt;font&gt;6&lt;/font&gt;" style="rounded=1;whiteSpace=wrap;html=1;fillColor=#9AC7BF;strokeColor=default;fontColor=#000000;" parent="1" vertex="1">
          <mxGeometry x="689.25" y="1101.5" width="15.75" height="17" as="geometry" />
        </mxCell>
        <mxCell id="GaA7F-3ZN9o3i6LmKS-X-100" value="数据" style="rounded=1;whiteSpace=wrap;html=1;fillColor=#F19C99;strokeColor=default;fontColor=#000000;align=center;" parent="1" vertex="1">
          <mxGeometry x="705" y="1118.5" width="50" height="17" as="geometry" />
        </mxCell>
        <mxCell id="GaA7F-3ZN9o3i6LmKS-X-101" value="&lt;font&gt;7&lt;/font&gt;" style="rounded=1;whiteSpace=wrap;html=1;fillColor=#F19C99;strokeColor=default;fontColor=#000000;" parent="1" vertex="1">
          <mxGeometry x="689.25" y="1118.5" width="15.75" height="17" as="geometry" />
        </mxCell>
        <mxCell id="GaA7F-3ZN9o3i6LmKS-X-104" value="" style="shape=flexArrow;endArrow=classic;startArrow=classic;html=1;rounded=0;fontSize=16;fontColor=#000000;strokeColor=none;fillColor=#FDD276;" parent="1" edge="1">
          <mxGeometry width="100" height="100" relative="1" as="geometry">
            <mxPoint x="618" y="1118.44" as="sourcePoint" />
            <mxPoint x="677" y="1117.94" as="targetPoint" />
          </mxGeometry>
        </mxCell>
        <mxCell id="GaA7F-3ZN9o3i6LmKS-X-105" value="页号72" style="rounded=1;whiteSpace=wrap;html=1;fillColor=#F19C99;strokeColor=default;fontColor=#000000;align=center;" parent="1" vertex="1">
          <mxGeometry x="555.88" y="998.5" width="50" height="17" as="geometry" />
        </mxCell>
        <mxCell id="GaA7F-3ZN9o3i6LmKS-X-106" value="&lt;font&gt;6&lt;/font&gt;" style="rounded=1;whiteSpace=wrap;html=1;fillColor=#F19C99;strokeColor=default;fontColor=#000000;" parent="1" vertex="1">
          <mxGeometry x="540.13" y="998.5" width="15.75" height="17" as="geometry" />
        </mxCell>
        <mxCell id="GaA7F-3ZN9o3i6LmKS-X-107" value="" style="shape=flexArrow;endArrow=classic;html=1;rounded=0;fontColor=#FFFFFF;strokeColor=none;fillColor=#FDD276;" parent="1" edge="1">
          <mxGeometry width="50" height="50" relative="1" as="geometry">
            <mxPoint x="575" y="1030.5" as="sourcePoint" />
            <mxPoint x="575" y="1067.5" as="targetPoint" />
          </mxGeometry>
        </mxCell>
      </root>
    </mxGraphModel>
  </diagram>
</mxfile>
